<svg width="550" height="171" viewBox="0 0 550 171" fill="none" xmlns="http://www.w3.org/2000/svg">
<rect width="550" height="171" fill="#666666"/>
<rect x="13" y="10" width="526" height="148" fill="#8F8F8F"/>
<path d="M145.491 51.744C148.051 51.744 150.354 49.568 150.354 46.88C150.354 44.192 148.051 42.016 145.491 42.016C142.995 42.016 140.627 44.192 140.627 46.88C140.627 49.568 142.995 51.744 145.491 51.744ZM131.539 51.744C134.099 51.744 136.403 49.568 136.403 46.88C136.403 44.192 134.099 42.016 131.539 42.016C129.043 42.016 126.675 44.192 126.675 46.88C126.675 49.568 129.043 51.744 131.539 51.744ZM138.579 100.576C148.499 100.576 156.115 95.264 156.115 84.256V56.48H147.155V83.744C147.155 90.08 144.467 92.512 138.579 92.512C132.627 92.512 129.875 90.08 129.875 83.744V56.48H120.915V84.256C120.915 95.264 128.531 100.576 138.579 100.576ZM180.854 100.576C187.51 100.576 193.206 94.688 193.206 86.304C193.206 77.92 187.702 72.16 181.046 72.16C176.885 72.16 174.262 73.888 172.47 76.576V53.792H163.83V100H172.47L172.278 96.032C173.814 98.912 176.694 100.576 180.854 100.576ZM178.358 93.024C174.646 93.024 172.214 90.592 172.214 86.304C172.214 82.272 174.646 79.776 178.358 79.776C182.006 79.776 184.31 82.272 184.31 86.304C184.31 90.592 182.006 93.024 178.358 93.024ZM206.952 88.992H227.624C228.264 79.456 222.952 72.16 213.16 72.16C204.712 72.16 198.12 78.048 198.12 86.304C198.12 94.688 204.392 100.576 214.12 100.576C219.816 100.576 223.144 98.848 225.768 96.544L220.84 91.232C219.496 92.192 217.128 93.408 213.992 93.408C210.088 93.408 207.784 91.808 206.952 88.992ZM206.824 84C207.528 80.736 209.832 79.2 213.224 79.2C216.616 79.2 218.536 80.992 218.92 84H206.824ZM233.517 100H242.157V87.904C242.157 82.08 244.269 80.288 248.173 80.288C249.389 80.288 250.413 80.608 251.501 81.12L254.253 73.248C253.165 72.672 251.821 72.16 250.029 72.16C247.213 72.16 244.013 73.184 242.029 77.664L242.157 72.736H233.517V100ZM256.035 100H280.035V93.024H268.963L281.059 73.44V72.736H257.507V79.712H267.875L256.035 99.296V100ZM292.889 88.992H313.561C314.201 79.456 308.889 72.16 299.097 72.16C290.649 72.16 284.057 78.048 284.057 86.304C284.057 94.688 290.329 100.576 300.057 100.576C305.753 100.576 309.081 98.848 311.705 96.544L306.777 91.232C305.433 92.192 303.065 93.408 299.929 93.408C296.025 93.408 293.721 91.808 292.889 88.992ZM292.761 84C293.465 80.736 295.769 79.2 299.161 79.2C302.553 79.2 304.473 80.992 304.857 84H292.761ZM329.439 100.576C333.215 100.576 336.351 98.784 338.015 95.52L337.823 100H346.463V72.736H337.823V87.328C337.823 90.784 335.903 92.768 332.447 92.768C329.375 92.768 327.903 90.976 327.903 87.904V72.736H319.263V88.48C319.263 96.224 323.487 100.576 329.439 100.576ZM368.962 72.672C367.746 72.352 366.402 72.16 364.93 72.16C357.954 72.16 353.218 76.32 353.218 82.144C353.218 84.512 354.114 86.688 355.65 88.352C353.218 89.44 351.874 91.296 351.874 93.728C351.874 96.224 352.898 98.016 355.138 99.232C352.066 100.384 350.146 102.304 350.146 105.248C350.146 110.432 355.01 114.208 364.802 114.208C375.618 114.208 379.842 109.856 379.842 104.096C379.842 98.784 375.618 95.712 368.194 95.328L361.474 95.008C359.49 94.944 358.658 94.112 358.658 92.832C358.658 92.128 358.914 91.552 359.362 91.168C360.898 91.936 362.754 92.256 364.93 92.256C371.906 92.256 376.386 87.968 376.386 82.144C376.386 80.928 376.066 79.776 375.426 78.816H379.458V72.672H368.962ZM364.802 85.984C362.178 85.984 360.77 84.448 360.77 82.144C360.77 79.968 362.178 78.496 364.802 78.496C367.426 78.496 368.834 79.968 368.834 82.144C368.834 84.448 367.426 85.984 364.802 85.984ZM359.298 102.048L366.466 102.496C369.986 102.688 371.01 103.2 371.01 104.736C371.01 106.4 369.858 107.744 364.802 107.744C360.066 107.744 358.53 106.336 358.53 104.16C358.53 103.328 358.786 102.624 359.298 102.048ZM396.238 100.704C400.206 100.704 402.51 99.296 403.854 98.208L400.59 92.192C400.014 92.576 398.99 93.344 397.582 93.344C396.238 93.344 395.342 92.768 395.342 90.016V79.904H402.318V72.736H395.342V58.528H386.766V72.736H382.734V79.904H386.766V89.76C386.766 97.952 390.734 100.704 396.238 100.704ZM413.761 85.216H421.825V81.44C428.865 80.416 432.705 75.808 432.705 68.96C432.705 62.24 427.649 55.904 418.497 55.904C411.777 55.904 407.105 58.656 404.801 63.712L411.713 67.744C413.249 65.184 414.977 63.584 418.497 63.584C421.825 63.584 423.873 66.272 423.873 68.96C423.873 72.16 421.953 75.04 416.705 75.04H413.761V85.216ZM417.729 100.384C420.609 100.384 423.105 98.144 423.105 94.944C423.105 91.808 420.609 89.568 417.729 89.568C414.785 89.568 412.289 91.808 412.289 94.944C412.289 98.144 414.785 100.384 417.729 100.384Z" fill="white"/>
</svg>
