<svg width="550" height="171" viewBox="0 0 550 171" fill="none" xmlns="http://www.w3.org/2000/svg">
<rect width="550" height="171" fill="#666666"/>
<rect x="13" y="10" width="526" height="148" fill="#8F8F8F"/>
<path d="M104.759 100H137.463V92.128H118.647L138.551 57.248V56.48H108.279V64.352H124.727L104.759 99.232V100ZM150.153 100.704H150.857L157.129 89.76C158.217 87.84 159.177 84.32 159.177 84.32C159.177 84.32 160.009 87.776 161.097 89.76L166.985 100.704H167.753L180.489 72.736H171.849L168.649 80.48C167.689 82.72 166.665 86.56 166.665 86.56C166.665 86.56 165.513 82.656 164.297 80.48L159.561 72.032H158.921L154.441 80.48C153.225 82.72 152.201 86.56 152.201 86.56C152.201 86.56 151.177 82.784 150.217 80.48L147.081 72.736H137.545L150.153 100.704ZM191.108 88.992H211.78C212.42 79.456 207.108 72.16 197.316 72.16C188.868 72.16 182.276 78.048 182.276 86.304C182.276 94.688 188.548 100.576 198.276 100.576C203.972 100.576 207.3 98.848 209.924 96.544L204.996 91.232C203.652 92.192 201.284 93.408 198.148 93.408C194.244 93.408 191.94 91.808 191.108 88.992ZM190.98 84C191.684 80.736 193.988 79.2 197.38 79.2C200.772 79.2 202.692 80.992 203.076 84H190.98ZM222.345 68.192C225.289 68.192 227.785 65.952 227.785 62.752C227.785 59.616 225.289 57.376 222.345 57.376C219.401 57.376 216.841 59.616 216.841 62.752C216.841 65.952 219.401 68.192 222.345 68.192ZM217.993 100H226.633V72.736H217.993V100ZM236.872 100H245.512V79.904H252.872V72.736H245.512V63.456C245.512 61.472 246.472 60.704 247.88 60.704C249.224 60.704 249.992 61.408 250.632 62.176L255.304 56.416C253.32 54.112 250.76 52.96 246.92 52.96C240.2 52.96 236.872 56.544 236.872 63.584V72.736H232.328V79.904H236.872V100ZM265.42 88.992H286.092C286.732 79.456 281.42 72.16 271.628 72.16C263.18 72.16 256.588 78.048 256.588 86.304C256.588 94.688 262.86 100.576 272.588 100.576C278.284 100.576 281.612 98.848 284.236 96.544L279.308 91.232C277.964 92.192 275.596 93.408 272.46 93.408C268.556 93.408 266.252 91.808 265.42 88.992ZM265.292 84C265.996 80.736 268.3 79.2 271.692 79.2C275.084 79.2 277.004 80.992 277.388 84H265.292ZM292.178 100H300.754V53.792H292.178V100ZM307.736 100H316.376V85.408C316.376 81.952 318.424 80.032 321.88 80.032C324.952 80.032 326.424 81.76 326.424 84.832V100H335.064V84.256C335.064 76.512 330.776 72.16 324.824 72.16C321.048 72.16 318.04 73.888 316.376 77.024V53.792H307.736V100ZM357.737 83.808H351.401C344.681 83.808 340.265 86.176 340.265 92C340.265 98.336 344.873 100.576 349.865 100.576C353.513 100.576 355.881 99.36 357.929 96.224L357.737 100H366.313V84.512C366.313 75.936 361.001 72.16 354.025 72.16C347.625 72.16 344.745 74.144 342.185 76.64L346.985 81.76C348.201 80.672 349.929 79.264 353.193 79.264C356.073 79.264 357.609 80.672 357.737 83.808ZM357.737 88.928V90.016C357.737 92.32 355.945 93.856 352.425 93.856C349.993 93.856 348.713 92.96 348.713 91.424C348.713 89.888 349.673 88.928 351.849 88.928H357.737ZM375.747 100H384.387V79.904H391.747V72.736H384.387V63.456C384.387 61.472 385.347 60.704 386.755 60.704C388.099 60.704 388.867 61.408 389.507 62.176L394.179 56.416C392.195 54.112 389.635 52.96 385.795 52.96C379.075 52.96 375.747 56.544 375.747 63.584V72.736H371.203V79.904H375.747V100ZM409.769 100.704C413.737 100.704 416.041 99.296 417.385 98.208L414.121 92.192C413.545 92.576 412.521 93.344 411.113 93.344C409.769 93.344 408.873 92.768 408.873 90.016V79.904H415.849V72.736H408.873V58.528H400.297V72.736H396.265V79.904H400.297V89.76C400.297 97.952 404.265 100.704 409.769 100.704ZM427.292 85.216H435.356V81.44C442.396 80.416 446.236 75.808 446.236 68.96C446.236 62.24 441.18 55.904 432.028 55.904C425.308 55.904 420.636 58.656 418.332 63.712L425.244 67.744C426.78 65.184 428.508 63.584 432.028 63.584C435.356 63.584 437.404 66.272 437.404 68.96C437.404 72.16 435.484 75.04 430.236 75.04H427.292V85.216ZM431.26 100.384C434.14 100.384 436.636 98.144 436.636 94.944C436.636 91.808 434.14 89.568 431.26 89.568C428.316 89.568 425.82 91.808 425.82 94.944C425.82 98.144 428.316 100.384 431.26 100.384Z" fill="white"/>
</svg>
