<svg width="550" height="171" viewBox="0 0 550 171" fill="none" xmlns="http://www.w3.org/2000/svg">
<rect width="550" height="171" fill="#666666"/>
<rect x="13" y="10" width="526" height="148" fill="#8F8F8F"/>
<path d="M104.424 100H113.384V56.48H104.424V100ZM121.455 100H130.095V85.408C130.095 81.952 132.143 80.032 135.599 80.032C138.671 80.032 140.143 81.76 140.143 84.832V100H148.783V84.256C148.783 76.512 144.495 72.16 138.543 72.16C134.767 72.16 131.567 73.952 129.903 77.216L130.095 72.736H121.455V100ZM167.176 100.704C171.144 100.704 173.448 99.296 174.792 98.208L171.528 92.192C170.952 92.576 169.928 93.344 168.52 93.344C167.176 93.344 166.28 92.768 166.28 90.016V79.904H173.256V72.736H166.28V58.528H157.704V72.736H153.672V79.904H157.704V89.76C157.704 97.952 161.672 100.704 167.176 100.704ZM186.764 88.992H207.436C208.076 79.456 202.764 72.16 192.972 72.16C184.524 72.16 177.932 78.048 177.932 86.304C177.932 94.688 184.204 100.576 193.932 100.576C199.628 100.576 202.956 98.848 205.58 96.544L200.652 91.232C199.308 92.192 196.94 93.408 193.804 93.408C189.9 93.408 187.596 91.808 186.764 88.992ZM186.636 84C187.34 80.736 189.644 79.2 193.036 79.2C196.428 79.2 198.348 80.992 198.732 84H186.636ZM213.33 100H221.97V87.904C221.97 82.08 224.082 80.288 227.986 80.288C229.202 80.288 230.226 80.608 231.314 81.12L234.066 73.248C232.978 72.672 231.634 72.16 229.842 72.16C227.026 72.16 223.826 73.184 221.842 77.664L221.97 72.736H213.33V100ZM245.327 88.992H265.999C266.639 79.456 261.327 72.16 251.535 72.16C243.087 72.16 236.495 78.048 236.495 86.304C236.495 94.688 242.767 100.576 252.495 100.576C258.191 100.576 261.519 98.848 264.143 96.544L259.215 91.232C257.871 92.192 255.503 93.408 252.367 93.408C248.463 93.408 246.159 91.808 245.327 88.992ZM245.199 84C245.903 80.736 248.207 79.2 251.599 79.2C254.991 79.2 256.911 80.992 257.295 84H245.199ZM282.012 100.576C290.588 100.576 293.212 96.48 293.212 91.488C293.212 85.728 288.22 83.872 284.252 82.976C280.54 82.144 278.812 81.952 278.812 80.416C278.812 79.328 279.772 78.816 281.756 78.816C283.804 78.816 285.724 79.776 287.003 80.864L291.612 75.936C289.372 73.632 286.172 72.16 281.692 72.16C275.868 72.16 271.132 74.656 271.132 80.8C271.132 86.496 275.292 88.544 279.004 89.504C283.42 90.656 285.148 90.656 285.148 92.128C285.148 93.28 284.252 93.792 281.436 93.792C278.876 93.792 276.508 92.704 274.652 90.912L269.596 95.392C271.964 98.208 275.676 100.576 282.012 100.576ZM308.949 100.576C317.525 100.576 320.149 96.48 320.149 91.488C320.149 85.728 315.157 83.872 311.189 82.976C307.477 82.144 305.749 81.952 305.749 80.416C305.749 79.328 306.709 78.816 308.693 78.816C310.741 78.816 312.661 79.776 313.941 80.864L318.549 75.936C316.309 73.632 313.109 72.16 308.629 72.16C302.805 72.16 298.069 74.656 298.069 80.8C298.069 86.496 302.229 88.544 305.941 89.504C310.357 90.656 312.085 90.656 312.085 92.128C312.085 93.28 311.189 93.792 308.373 93.792C305.813 93.792 303.445 92.704 301.589 90.912L296.533 95.392C298.901 98.208 302.613 100.576 308.949 100.576ZM330.127 68.192C333.071 68.192 335.567 65.952 335.567 62.752C335.567 59.616 333.071 57.376 330.127 57.376C327.183 57.376 324.623 59.616 324.623 62.752C324.623 65.952 327.183 68.192 330.127 68.192ZM325.775 100H334.415V72.736H325.775V100ZM349.389 88.992H370.061C370.701 79.456 365.389 72.16 355.597 72.16C347.149 72.16 340.557 78.048 340.557 86.304C340.557 94.688 346.829 100.576 356.557 100.576C362.253 100.576 365.581 98.848 368.205 96.544L363.277 91.232C361.933 92.192 359.565 93.408 356.429 93.408C352.525 93.408 350.221 91.808 349.389 88.992ZM349.261 84C349.965 80.736 352.269 79.2 355.661 79.2C359.053 79.2 360.973 80.992 361.357 84H349.261ZM375.955 100H384.595V87.904C384.595 82.08 386.707 80.288 390.611 80.288C391.827 80.288 392.851 80.608 393.939 81.12L396.691 73.248C395.603 72.672 394.259 72.16 392.467 72.16C389.651 72.16 386.451 73.184 384.467 77.664L384.595 72.736H375.955V100ZM413.113 100.704C417.081 100.704 419.385 99.296 420.729 98.208L417.465 92.192C416.889 92.576 415.865 93.344 414.457 93.344C413.113 93.344 412.217 92.768 412.217 90.016V79.904H419.193V72.736H412.217V58.528H403.641V72.736H399.609V79.904H403.641V89.76C403.641 97.952 407.609 100.704 413.113 100.704ZM430.636 85.216H438.7V81.44C445.74 80.416 449.58 75.808 449.58 68.96C449.58 62.24 444.524 55.904 435.372 55.904C428.652 55.904 423.98 58.656 421.676 63.712L428.588 67.744C430.124 65.184 431.852 63.584 435.372 63.584C438.7 63.584 440.748 66.272 440.748 68.96C440.748 72.16 438.828 75.04 433.58 75.04H430.636V85.216ZM434.604 100.384C437.484 100.384 439.98 98.144 439.98 94.944C439.98 91.808 437.484 89.568 434.604 89.568C431.66 89.568 429.164 91.808 429.164 94.944C429.164 98.144 431.66 100.384 434.604 100.384Z" fill="white"/>
</svg>
