<svg width="550" height="171" viewBox="0 0 550 171" fill="none" xmlns="http://www.w3.org/2000/svg">
<rect width="550" height="171" fill="#666666"/>
<rect x="13" y="10" width="526" height="148" fill="#8F8F8F"/>
<path d="M138.097 100.576C146.481 100.576 152.497 96.864 156.273 90.976L149.297 86.176C146.865 89.888 143.729 92.576 138.097 92.576C130.225 92.576 124.913 86.368 124.913 78.24C124.913 70.112 130.225 64.032 138.097 64.032C143.089 64.032 146.609 66.4 148.657 69.728L155.505 64.864C151.601 58.784 145.969 55.968 138.097 55.968C125.617 55.968 115.697 65.376 115.697 78.24C115.697 91.104 125.617 100.576 138.097 100.576ZM175.222 100.576C183.67 100.576 190.198 94.688 190.198 86.432C190.198 78.112 183.67 72.16 175.222 72.16C166.774 72.16 160.182 78.112 160.182 86.432C160.182 94.688 166.774 100.576 175.222 100.576ZM175.222 93.28C171.382 93.28 169.014 90.464 169.014 86.432C169.014 82.336 171.382 79.584 175.222 79.584C179.062 79.584 181.366 82.336 181.366 86.432C181.366 90.464 179.062 93.28 175.222 93.28ZM196.017 100H204.657V85.408C204.657 81.952 206.705 80.032 210.161 80.032C213.233 80.032 214.705 81.76 214.705 84.832V100H223.345V84.256C223.345 76.512 219.057 72.16 213.105 72.16C209.329 72.16 206.129 73.952 204.465 77.216L204.657 72.736H196.017V100ZM240.985 100.576H241.817L256.409 72.736H247.641L243.929 80.864C242.713 83.616 241.817 88.096 241.817 88.096C241.817 88.096 240.857 83.616 239.577 80.864L235.737 72.736H226.201L240.985 100.576ZM265.064 68.192C268.008 68.192 270.504 65.952 270.504 62.752C270.504 59.616 268.008 57.376 265.064 57.376C262.12 57.376 259.56 59.616 259.56 62.752C259.56 65.952 262.12 68.192 265.064 68.192ZM260.712 100H269.352V72.736H260.712V100ZM276.455 100H285.095V85.408C285.095 81.952 287.143 80.032 290.599 80.032C293.671 80.032 295.143 81.76 295.143 84.832V100H303.783V84.256C303.783 76.512 299.495 72.16 293.543 72.16C289.767 72.16 286.567 73.952 284.903 77.216L285.095 72.736H276.455V100ZM324.344 100.576C329.784 100.576 332.984 98.656 335.672 95.648L329.848 90.528C328.568 91.808 327.096 93.088 324.344 93.088C320.44 93.088 318.264 90.272 318.264 86.304C318.264 82.464 320.44 79.712 324.344 79.712C326.52 79.712 328.632 80.928 329.656 82.592L335.8 77.6C333.048 74.144 329.784 72.16 324.344 72.16C315.832 72.16 309.432 78.048 309.432 86.304C309.432 94.688 315.832 100.576 324.344 100.576ZM348.139 88.992H368.811C369.451 79.456 364.139 72.16 354.347 72.16C345.899 72.16 339.307 78.048 339.307 86.304C339.307 94.688 345.579 100.576 355.307 100.576C361.003 100.576 364.331 98.848 366.955 96.544L362.027 91.232C360.683 92.192 358.315 93.408 355.179 93.408C351.275 93.408 348.971 91.808 348.139 88.992ZM348.011 84C348.715 80.736 351.019 79.2 354.411 79.2C357.803 79.2 359.723 80.992 360.107 84H348.011ZM386.161 100.576C390.321 100.576 393.201 98.912 394.737 96.032L394.545 100H403.185V53.792H394.545V76.576C392.817 73.888 390.385 72.16 386.033 72.16C379.441 72.16 373.809 77.92 373.809 86.304C373.809 94.688 379.505 100.576 386.161 100.576ZM388.657 93.024C385.009 93.024 382.705 90.592 382.705 86.304C382.705 82.272 385.009 79.776 388.657 79.776C392.369 79.776 394.801 82.272 394.801 86.304C394.801 90.592 392.369 93.024 388.657 93.024ZM417.699 85.216H425.763V81.44C432.803 80.416 436.643 75.808 436.643 68.96C436.643 62.24 431.587 55.904 422.435 55.904C415.715 55.904 411.043 58.656 408.739 63.712L415.651 67.744C417.187 65.184 418.915 63.584 422.435 63.584C425.763 63.584 427.811 66.272 427.811 68.96C427.811 72.16 425.891 75.04 420.643 75.04H417.699V85.216ZM421.667 100.384C424.547 100.384 427.043 98.144 427.043 94.944C427.043 91.808 424.547 89.568 421.667 89.568C418.723 89.568 416.227 91.808 416.227 94.944C416.227 98.144 418.723 100.384 421.667 100.384Z" fill="white"/>
</svg>
