<svg width="550" height="171" viewBox="0 0 550 171" fill="none" xmlns="http://www.w3.org/2000/svg">
<rect width="550" height="171" fill="#666666"/>
<rect x="13" y="10" width="526" height="148" fill="#8F8F8F"/>
<path d="M142.138 100H155.514C168.954 100 178.426 91.104 178.426 78.24C178.426 65.376 168.89 56.48 155.514 56.48H142.138V100ZM151.098 92.128V64.352H155.066C164.73 64.352 169.146 70.112 169.146 78.24C169.146 86.368 164.73 92.128 155.066 92.128H151.098ZM198.253 100.576C206.701 100.576 213.229 94.688 213.229 86.432C213.229 78.112 206.701 72.16 198.253 72.16C189.805 72.16 183.213 78.112 183.213 86.432C183.213 94.688 189.805 100.576 198.253 100.576ZM198.253 93.28C194.413 93.28 192.045 90.464 192.045 86.432C192.045 82.336 194.413 79.584 198.253 79.584C202.093 79.584 204.397 82.336 204.397 86.432C204.397 90.464 202.093 93.28 198.253 93.28ZM229.032 100.576C232.808 100.576 235.944 98.784 237.608 95.52L237.416 100H246.056V72.736H237.416V87.328C237.416 90.784 235.496 92.768 232.04 92.768C228.968 92.768 227.496 90.976 227.496 87.904V72.736H218.856V88.48C218.856 96.224 223.08 100.576 229.032 100.576ZM269.885 100.576C276.541 100.576 282.237 94.688 282.237 86.304C282.237 77.92 276.733 72.16 270.077 72.16C265.917 72.16 263.293 73.888 261.501 76.576V53.792H252.861V100H261.501L261.309 96.032C262.845 98.912 265.725 100.576 269.885 100.576ZM267.389 93.024C263.677 93.024 261.245 90.592 261.245 86.304C261.245 82.272 263.677 79.776 267.389 79.776C271.037 79.776 273.341 82.272 273.341 86.304C273.341 90.592 271.037 93.024 267.389 93.024ZM299.269 100.704C303.237 100.704 305.541 99.296 306.885 98.208L303.621 92.192C303.045 92.576 302.021 93.344 300.613 93.344C299.269 93.344 298.373 92.768 298.373 90.016V79.904H305.349V72.736H298.373V58.528H289.797V72.736H285.765V79.904H289.797V89.76C289.797 97.952 293.765 100.704 299.269 100.704ZM314.122 100H322.762V79.904H330.122V72.736H322.762V63.456C322.762 61.472 323.722 60.704 325.13 60.704C326.474 60.704 327.242 61.408 327.882 62.176L332.554 56.416C330.57 54.112 328.01 52.96 324.17 52.96C317.45 52.96 314.122 56.544 314.122 63.584V72.736H309.578V79.904H314.122V100ZM345.407 100.576C349.183 100.576 352.319 98.784 353.983 95.52L353.791 100H362.431V72.736H353.791V87.328C353.791 90.784 351.871 92.768 348.415 92.768C345.343 92.768 343.871 90.976 343.871 87.904V72.736H335.231V88.48C335.231 96.224 339.455 100.576 345.407 100.576ZM369.428 100H378.004V53.792H369.428V100ZM392.73 85.216H400.794V81.44C407.834 80.416 411.674 75.808 411.674 68.96C411.674 62.24 406.618 55.904 397.466 55.904C390.746 55.904 386.074 58.656 383.77 63.712L390.682 67.744C392.218 65.184 393.946 63.584 397.466 63.584C400.794 63.584 402.842 66.272 402.842 68.96C402.842 72.16 400.922 75.04 395.674 75.04H392.73V85.216ZM396.698 100.384C399.578 100.384 402.074 98.144 402.074 94.944C402.074 91.808 399.578 89.568 396.698 89.568C393.754 89.568 391.258 91.808 391.258 94.944C391.258 98.144 393.754 100.384 396.698 100.384Z" fill="white"/>
</svg>
