<svg width="550" height="171" viewBox="0 0 550 171" fill="none" xmlns="http://www.w3.org/2000/svg">
<rect width="550" height="171" fill="#666666"/>
<rect x="13" y="10" width="526" height="148" fill="#8F8F8F"/>
<path d="M120.33 100H129.29V56.48H120.33V100ZM137.361 100H146.001V85.408C146.001 81.952 148.049 80.032 151.505 80.032C154.577 80.032 156.049 81.76 156.049 84.832V100H164.689V84.256C164.689 76.512 160.401 72.16 154.449 72.16C150.673 72.16 147.473 73.952 145.809 77.216L146.001 72.736H137.361V100ZM183.082 100.704C187.05 100.704 189.354 99.296 190.698 98.208L187.434 92.192C186.858 92.576 185.834 93.344 184.426 93.344C183.082 93.344 182.186 92.768 182.186 90.016V79.904H189.162V72.736H182.186V58.528H173.61V72.736H169.578V79.904H173.61V89.76C173.61 97.952 177.578 100.704 183.082 100.704ZM202.67 88.992H223.342C223.982 79.456 218.67 72.16 208.878 72.16C200.43 72.16 193.838 78.048 193.838 86.304C193.838 94.688 200.11 100.576 209.838 100.576C215.534 100.576 218.862 98.848 221.486 96.544L216.558 91.232C215.214 92.192 212.846 93.408 209.71 93.408C205.806 93.408 203.502 91.808 202.67 88.992ZM202.542 84C203.246 80.736 205.55 79.2 208.942 79.2C212.334 79.2 214.254 80.992 214.638 84H202.542ZM229.236 100H237.876V87.904C237.876 82.08 239.988 80.288 243.892 80.288C245.108 80.288 246.132 80.608 247.22 81.12L249.972 73.248C248.884 72.672 247.54 72.16 245.748 72.16C242.932 72.16 239.732 73.184 237.748 77.664L237.876 72.736H229.236V100ZM261.233 88.992H281.905C282.545 79.456 277.233 72.16 267.441 72.16C258.993 72.16 252.401 78.048 252.401 86.304C252.401 94.688 258.673 100.576 268.401 100.576C274.097 100.576 277.425 98.848 280.049 96.544L275.121 91.232C273.777 92.192 271.409 93.408 268.273 93.408C264.369 93.408 262.065 91.808 261.233 88.992ZM261.105 84C261.809 80.736 264.113 79.2 267.505 79.2C270.897 79.2 272.817 80.992 273.201 84H261.105ZM297.918 100.576C306.494 100.576 309.118 96.48 309.118 91.488C309.118 85.728 304.126 83.872 300.158 82.976C296.446 82.144 294.718 81.952 294.718 80.416C294.718 79.328 295.678 78.816 297.662 78.816C299.71 78.816 301.63 79.776 302.91 80.864L307.518 75.936C305.278 73.632 302.078 72.16 297.598 72.16C291.774 72.16 287.038 74.656 287.038 80.8C287.038 86.496 291.198 88.544 294.91 89.504C299.326 90.656 301.054 90.656 301.054 92.128C301.054 93.28 300.158 93.792 297.342 93.792C294.782 93.792 292.414 92.704 290.558 90.912L285.502 95.392C287.87 98.208 291.582 100.576 297.918 100.576ZM325.582 100.704C329.55 100.704 331.854 99.296 333.198 98.208L329.934 92.192C329.358 92.576 328.334 93.344 326.926 93.344C325.582 93.344 324.686 92.768 324.686 90.016V79.904H331.662V72.736H324.686V58.528H316.11V72.736H312.078V79.904H316.11V89.76C316.11 97.952 320.078 100.704 325.582 100.704ZM345.17 88.992H365.842C366.482 79.456 361.17 72.16 351.378 72.16C342.93 72.16 336.338 78.048 336.338 86.304C336.338 94.688 342.61 100.576 352.338 100.576C358.034 100.576 361.362 98.848 363.986 96.544L359.058 91.232C357.714 92.192 355.346 93.408 352.21 93.408C348.306 93.408 346.002 91.808 345.17 88.992ZM345.042 84C345.746 80.736 348.05 79.2 351.442 79.2C354.834 79.2 356.754 80.992 357.138 84H345.042ZM383.192 100.576C387.352 100.576 390.232 98.912 391.768 96.032L391.576 100H400.216V53.792H391.576V76.576C389.848 73.888 387.416 72.16 383.064 72.16C376.472 72.16 370.84 77.92 370.84 86.304C370.84 94.688 376.536 100.576 383.192 100.576ZM385.688 93.024C382.04 93.024 379.736 90.592 379.736 86.304C379.736 82.272 382.04 79.776 385.688 79.776C389.4 79.776 391.832 82.272 391.832 86.304C391.832 90.592 389.4 93.024 385.688 93.024ZM414.73 85.216H422.794V81.44C429.834 80.416 433.674 75.808 433.674 68.96C433.674 62.24 428.618 55.904 419.466 55.904C412.746 55.904 408.074 58.656 405.77 63.712L412.682 67.744C414.218 65.184 415.946 63.584 419.466 63.584C422.794 63.584 424.842 66.272 424.842 68.96C424.842 72.16 422.922 75.04 417.674 75.04H414.73V85.216ZM418.698 100.384C421.578 100.384 424.074 98.144 424.074 94.944C424.074 91.808 421.578 89.568 418.698 89.568C415.754 89.568 413.258 91.808 413.258 94.944C413.258 98.144 415.754 100.384 418.698 100.384Z" fill="white"/>
</svg>
